<?xml version="1.0" standalone="no"?>
<!DOCTYPE svg PUBLIC "-//W3C//DTD SVG 20010904//EN"
 "http://www.w3.org/TR/2001/REC-SVG-20010904/DTD/svg10.dtd">
<svg version="1.0" xmlns="http://www.w3.org/2000/svg"
 width="323.000000pt" height="500.000000pt" viewBox="0 0 323.000000 500.000000"
 preserveAspectRatio="xMidYMid meet">

<g transform="translate(0.000000,500.000000) scale(0.100000,-0.100000)"
fill="#000000" stroke="none">
<path d="M1393 4979 c-56 -36 -66 -112 -38 -289 8 -52 28 -174 43 -270 27
-172 28 -175 52 -175 24 0 26 5 37 85 7 47 22 135 33 195 42 234 51 355 30
404 -13 33 -69 71 -103 71 -12 0 -36 -9 -54 -21z"/>
<path d="M10 4636 c0 -33 2 -34 48 -40 163 -24 308 -184 332 -370 12 -91 12
-2817 1 -2909 -24 -184 -157 -335 -327 -369 -50 -10 -54 -13 -54 -39 l0 -29
608 -2 607 -3 0 -265 0 -265 -30 -59 c-60 -118 -162 -201 -263 -213 -46 -5
-48 -6 -44 -34 l4 -29 493 0 493 0 4 29 c4 28 2 29 -44 34 -104 13 -205 95
-261 215 l-32 67 0 260 0 260 608 3 607 2 0 345 c0 190 -2 345 -5 345 -2 0
-22 -26 -44 -57 -57 -85 -142 -180 -224 -251 -250 -217 -530 -322 -862 -322
l-86 0 3 263 c3 252 4 264 26 307 33 63 86 115 142 139 44 19 69 21 381 22
184 0 361 5 394 10 170 26 370 131 486 256 162 174 250 391 250 618 0 378
-232 690 -596 803 -43 14 -165 16 -893 19 l-843 4 3 -27 c3 -23 10 -29 55 -40
102 -26 179 -85 233 -179 51 -89 50 -68 50 -1167 l0 -1028 -118 0 c-154 0
-198 14 -274 90 -46 47 -60 68 -77 124 -21 68 -21 74 -21 1563 0 1618 -2 1544
52 1660 50 107 178 203 291 219 46 6 47 7 47 40 l0 34 -560 0 -560 0 0 -34z
m2362 -1339 c118 -36 204 -86 293 -169 165 -154 242 -325 252 -558 5 -112 3
-136 -21 -235 -29 -119 -67 -208 -126 -294 -39 -58 -135 -161 -149 -161 -5 0
-71 90 -147 200 -76 110 -176 253 -221 318 -45 64 -103 149 -130 187 -52 77
-155 224 -366 526 -75 108 -137 202 -137 208 0 10 76 12 333 9 325 -4 334 -5
419 -31z m-709 -262 c57 -82 127 -184 156 -225 29 -41 94 -135 144 -207 166
-239 320 -460 435 -624 85 -122 110 -164 102 -174 -6 -7 -57 -28 -113 -47
l-102 -33 -275 0 c-315 0 -320 1 -399 91 -72 82 -71 71 -71 762 0 370 4 612 9
610 5 -1 56 -70 114 -153z"/>
</g>
</svg>
